<svg width="299" height="59" viewBox="0 0 299 59" fill="none" xmlns="http://www.w3.org/2000/svg">
<path d="M55.384 44.43C53.2053 44.43 51.3133 43.9857 49.708 43.097C48.1027 42.2083 46.8557 40.947 45.967 39.313C45.0783 37.6503 44.634 35.701 44.634 33.465C44.634 31.229 45.0783 29.294 45.967 27.66C46.8557 26.026 48.1027 24.7647 49.708 23.876C51.3133 22.9873 53.2053 22.543 55.384 22.543C57.5627 22.543 59.4547 22.9873 61.06 23.876C62.6653 24.7647 63.9123 26.026 64.801 27.66C65.6897 29.294 66.134 31.229 66.134 33.465C66.134 35.701 65.6897 37.6503 64.801 39.313C63.9123 40.947 62.6653 42.2083 61.06 43.097C59.4547 43.9857 57.5627 44.43 55.384 44.43ZM55.384 40.345C56.9893 40.345 58.2793 39.7717 59.254 38.625C60.2287 37.4497 60.716 35.7297 60.716 33.465C60.716 31.1717 60.2287 29.466 59.254 28.348C58.2793 27.2013 56.9893 26.628 55.384 26.628C53.7787 26.628 52.4887 27.2013 51.514 28.348C50.5393 29.466 50.052 31.1717 50.052 33.465C50.052 35.7297 50.5393 37.4497 51.514 38.625C52.4887 39.7717 53.7787 40.345 55.384 40.345ZM70.5704 51.74V22.973H75.8164V27.402H75.3864C75.8164 25.94 76.6907 24.7647 78.0094 23.876C79.3567 22.9873 80.9191 22.543 82.6964 22.543C84.5311 22.543 86.1364 22.9873 87.5124 23.876C88.9171 24.7647 90.0064 26.026 90.7804 27.66C91.5544 29.2653 91.9414 31.2003 91.9414 33.465C91.9414 35.701 91.5544 37.6503 90.7804 39.313C90.0064 40.947 88.9314 42.2083 87.5554 43.097C86.1794 43.9857 84.5597 44.43 82.6964 44.43C80.9477 44.43 79.4141 44 78.0954 43.14C76.7767 42.2513 75.8881 41.1047 75.4294 39.7H75.9454V51.74H70.5704ZM81.1914 40.345C82.7967 40.345 84.0867 39.7717 85.0614 38.625C86.0361 37.4497 86.5234 35.7297 86.5234 33.465C86.5234 31.1717 86.0361 29.466 85.0614 28.348C84.0867 27.2013 82.7967 26.628 81.1914 26.628C79.5861 26.628 78.2961 27.2013 77.3214 28.348C76.3467 29.466 75.8594 31.1717 75.8594 33.465C75.8594 35.7297 76.3467 37.4497 77.3214 38.625C78.2961 39.7717 79.5861 40.345 81.1914 40.345ZM106.717 44.43C104.337 44.43 102.288 43.9857 100.568 43.097C98.8476 42.2083 97.5146 40.947 96.5686 39.313C95.6513 37.679 95.1926 35.744 95.1926 33.508C95.1926 31.3293 95.6369 29.423 96.5256 27.789C97.4429 26.155 98.6899 24.8793 100.267 23.962C101.872 23.016 103.692 22.543 105.728 22.543C107.734 22.543 109.454 22.973 110.888 23.833C112.321 24.693 113.425 25.9113 114.199 27.488C115.001 29.0647 115.403 30.9423 115.403 33.121V34.712H99.5356V31.616H111.619L110.931 32.261C110.931 30.3117 110.501 28.821 109.641 27.789C108.781 26.7283 107.548 26.198 105.943 26.198C104.739 26.198 103.707 26.4847 102.847 27.058C102.015 27.6027 101.37 28.391 100.912 29.423C100.482 30.4263 100.267 31.6303 100.267 33.035V33.336C100.267 34.9127 100.51 36.217 100.998 37.249C101.485 38.281 102.216 39.055 103.191 39.571C104.165 40.087 105.369 40.345 106.803 40.345C107.978 40.345 109.153 40.173 110.329 39.829C111.504 39.4563 112.579 38.883 113.554 38.109L115.059 41.721C114.055 42.5523 112.794 43.2117 111.275 43.699C109.755 44.1863 108.236 44.43 106.717 44.43ZM119.659 44V22.973H124.905V27.187H124.432C125.063 25.6677 126.038 24.521 127.356 23.747C128.704 22.9443 130.223 22.543 131.914 22.543C133.606 22.543 134.996 22.8583 136.085 23.489C137.175 24.1197 137.992 25.08 138.536 26.37C139.081 27.6313 139.353 29.2367 139.353 31.186V44H133.978V31.444C133.978 30.3547 133.835 29.466 133.548 28.778C133.29 28.09 132.875 27.5883 132.301 27.273C131.757 26.929 131.054 26.757 130.194 26.757C129.162 26.757 128.259 26.9863 127.485 27.445C126.711 27.875 126.109 28.5057 125.679 29.337C125.249 30.1397 125.034 31.0857 125.034 32.175V44H119.659ZM144.813 51.74V22.973H150.059V27.402H149.629C150.059 25.94 150.933 24.7647 152.252 23.876C153.599 22.9873 155.161 22.543 156.939 22.543C158.773 22.543 160.379 22.9873 161.755 23.876C163.159 24.7647 164.249 26.026 165.023 27.66C165.797 29.2653 166.184 31.2003 166.184 33.465C166.184 35.701 165.797 37.6503 165.023 39.313C164.249 40.947 163.174 42.2083 161.798 43.097C160.422 43.9857 158.802 44.43 156.939 44.43C155.19 44.43 153.656 44 152.338 43.14C151.019 42.2513 150.13 41.1047 149.672 39.7H150.188V51.74H144.813ZM155.434 40.345C157.039 40.345 158.329 39.7717 159.304 38.625C160.278 37.4497 160.766 35.7297 160.766 33.465C160.766 31.1717 160.278 29.466 159.304 28.348C158.329 27.2013 157.039 26.628 155.434 26.628C153.828 26.628 152.538 27.2013 151.564 28.348C150.589 29.466 150.102 31.1717 150.102 33.465C150.102 35.7297 150.589 37.4497 151.564 38.625C152.538 39.7717 153.828 40.345 155.434 40.345ZM180.185 44.43C178.006 44.43 176.114 43.9857 174.509 43.097C172.903 42.2083 171.656 40.947 170.768 39.313C169.879 37.6503 169.435 35.701 169.435 33.465C169.435 31.229 169.879 29.294 170.768 27.66C171.656 26.026 172.903 24.7647 174.509 23.876C176.114 22.9873 178.006 22.543 180.185 22.543C182.363 22.543 184.255 22.9873 185.861 23.876C187.466 24.7647 188.713 26.026 189.602 27.66C190.49 29.294 190.935 31.229 190.935 33.465C190.935 35.701 190.49 37.6503 189.602 39.313C188.713 40.947 187.466 42.2083 185.861 43.097C184.255 43.9857 182.363 44.43 180.185 44.43ZM180.185 40.345C181.79 40.345 183.08 39.7717 184.055 38.625C185.029 37.4497 185.517 35.7297 185.517 33.465C185.517 31.1717 185.029 29.466 184.055 28.348C183.08 27.2013 181.79 26.628 180.185 26.628C178.579 26.628 177.289 27.2013 176.315 28.348C175.34 29.466 174.853 31.1717 174.853 33.465C174.853 35.7297 175.34 37.4497 176.315 38.625C177.289 39.7717 178.579 40.345 180.185 40.345ZM204.96 44.43C202.782 44.43 200.89 43.9857 199.284 43.097C197.679 42.2083 196.432 40.947 195.543 39.313C194.655 37.6503 194.21 35.701 194.21 33.465C194.21 31.229 194.655 29.294 195.543 27.66C196.432 26.026 197.679 24.7647 199.284 23.876C200.89 22.9873 202.782 22.543 204.96 22.543C207.139 22.543 209.031 22.9873 210.636 23.876C212.242 24.7647 213.489 26.026 214.377 27.66C215.266 29.294 215.71 31.229 215.71 33.465C215.71 35.701 215.266 37.6503 214.377 39.313C213.489 40.947 212.242 42.2083 210.636 43.097C209.031 43.9857 207.139 44.43 204.96 44.43ZM204.96 40.345C206.566 40.345 207.856 39.7717 208.83 38.625C209.805 37.4497 210.292 35.7297 210.292 33.465C210.292 31.1717 209.805 29.466 208.83 28.348C207.856 27.2013 206.566 26.628 204.96 26.628C203.355 26.628 202.065 27.2013 201.09 28.348C200.116 29.466 199.628 31.1717 199.628 33.465C199.628 35.7297 200.116 37.4497 201.09 38.625C202.065 39.7717 203.355 40.345 204.96 40.345ZM227.457 44.43C224.963 44.43 223.114 43.7563 221.91 42.409C220.734 41.033 220.147 39.0263 220.147 36.389V13.685H225.522V36.131C225.522 36.9623 225.636 37.679 225.866 38.281C226.124 38.8543 226.496 39.2843 226.984 39.571C227.471 39.8577 228.073 40.001 228.79 40.001C229.105 40.001 229.42 39.9867 229.736 39.958C230.051 39.9293 230.352 39.872 230.639 39.786L230.553 44.043C230.037 44.1577 229.521 44.2437 229.005 44.301C228.517 44.387 228.001 44.43 227.457 44.43ZM241.365 44.43C240.19 44.43 239.043 44.3297 237.925 44.129C236.836 43.9283 235.832 43.656 234.915 43.312C233.998 42.9393 233.195 42.4807 232.507 41.936L233.883 38.41C234.6 38.8687 235.374 39.27 236.205 39.614C237.036 39.958 237.896 40.216 238.785 40.388C239.674 40.56 240.548 40.646 241.408 40.646C242.784 40.646 243.802 40.4167 244.461 39.958C245.149 39.4707 245.493 38.84 245.493 38.066C245.493 37.4067 245.264 36.905 244.805 36.561C244.375 36.1883 243.716 35.916 242.827 35.744L238.527 34.927C236.75 34.583 235.388 33.938 234.442 32.992C233.525 32.0173 233.066 30.7703 233.066 29.251C233.066 27.875 233.439 26.6853 234.184 25.682C234.958 24.6787 236.019 23.9047 237.366 23.36C238.713 22.8153 240.261 22.543 242.01 22.543C243.013 22.543 243.988 22.6433 244.934 22.844C245.88 23.016 246.769 23.2883 247.6 23.661C248.46 24.005 249.205 24.4637 249.836 25.037L248.374 28.563C247.829 28.1043 247.199 27.7173 246.482 27.402C245.765 27.058 245.02 26.8 244.246 26.628C243.501 26.4273 242.77 26.327 242.053 26.327C240.648 26.327 239.602 26.5707 238.914 27.058C238.255 27.5453 237.925 28.1903 237.925 28.993C237.925 29.595 238.126 30.0967 238.527 30.498C238.928 30.8993 239.545 31.1717 240.376 31.315L244.676 32.132C246.539 32.476 247.944 33.1067 248.89 34.024C249.865 34.9413 250.352 36.174 250.352 37.722C250.352 39.1267 249.979 40.3307 249.234 41.334C248.489 42.3373 247.442 43.1113 246.095 43.656C244.748 44.172 243.171 44.43 241.365 44.43Z" fill="white"/>
<path d="M252.514 44L253.46 38.023H259.48L258.534 44H252.514ZM267.437 18.458L268.297 13.212H274.274L273.414 18.458H267.437ZM263.653 44L267.007 22.973H272.382L269.028 44H263.653ZM274.613 44L277.967 22.973H283.213L282.525 27.23H282.181C282.898 25.7107 283.915 24.5497 285.234 23.747C286.581 22.9443 288.158 22.543 289.964 22.543C291.512 22.543 292.802 22.8583 293.834 23.489C294.895 24.1197 295.64 25.0943 296.07 26.413C296.529 27.703 296.6 29.3657 296.285 31.401L294.307 44H288.932L290.91 31.487C291.082 30.4263 291.082 29.552 290.91 28.864C290.738 28.176 290.394 27.66 289.878 27.316C289.391 26.9433 288.703 26.757 287.814 26.757C286.696 26.757 285.707 27.0007 284.847 27.488C284.016 27.9753 283.342 28.6633 282.826 29.552C282.339 30.412 281.995 31.4583 281.794 32.691L279.988 44H274.613Z" fill="#E84499"/>
<path d="M8.95833 48.625V19.9583C8.95833 18.9729 9.3092 18.1293 10.0109 17.4276C10.7127 16.7259 11.5562 16.375 12.5417 16.375H30.4583C31.4437 16.375 32.2873 16.7259 32.9891 17.4276C33.6908 18.1293 34.0417 18.9729 34.0417 19.9583V48.625L21.5 43.25L8.95833 48.625ZM12.5417 43.1604L21.5 39.3083L30.4583 43.1604V19.9583H12.5417V43.1604Z" fill="#E84499"/>
</svg>
