<svg width="413" height="147" viewBox="0 0 413 147" fill="none" xmlns="http://www.w3.org/2000/svg">
<rect width="413" height="147" fill="#1E1E1E"/>
<path d="M91.384 88.43C89.2053 88.43 87.3133 87.9857 85.708 87.097C84.1027 86.2083 82.8557 84.947 81.967 83.313C81.0783 81.6503 80.634 79.701 80.634 77.465C80.634 75.229 81.0783 73.294 81.967 71.66C82.8557 70.026 84.1027 68.7647 85.708 67.876C87.3133 66.9873 89.2053 66.543 91.384 66.543C93.5627 66.543 95.4547 66.9873 97.06 67.876C98.6653 68.7647 99.9123 70.026 100.801 71.66C101.69 73.294 102.134 75.229 102.134 77.465C102.134 79.701 101.69 81.6503 100.801 83.313C99.9123 84.947 98.6653 86.2083 97.06 87.097C95.4547 87.9857 93.5627 88.43 91.384 88.43ZM91.384 84.345C92.9893 84.345 94.2793 83.7717 95.254 82.625C96.2287 81.4497 96.716 79.7297 96.716 77.465C96.716 75.1717 96.2287 73.466 95.254 72.348C94.2793 71.2013 92.9893 70.628 91.384 70.628C89.7787 70.628 88.4887 71.2013 87.514 72.348C86.5393 73.466 86.052 75.1717 86.052 77.465C86.052 79.7297 86.5393 81.4497 87.514 82.625C88.4887 83.7717 89.7787 84.345 91.384 84.345ZM106.57 95.74V66.973H111.816V71.402H111.386C111.816 69.94 112.691 68.7647 114.009 67.876C115.357 66.9873 116.919 66.543 118.696 66.543C120.531 66.543 122.136 66.9873 123.512 67.876C124.917 68.7647 126.006 70.026 126.78 71.66C127.554 73.2653 127.941 75.2003 127.941 77.465C127.941 79.701 127.554 81.6503 126.78 83.313C126.006 84.947 124.931 86.2083 123.555 87.097C122.179 87.9857 120.56 88.43 118.696 88.43C116.948 88.43 115.414 88 114.095 87.14C112.777 86.2513 111.888 85.1047 111.429 83.7H111.945V95.74H106.57ZM117.191 84.345C118.797 84.345 120.087 83.7717 121.061 82.625C122.036 81.4497 122.523 79.7297 122.523 77.465C122.523 75.1717 122.036 73.466 121.061 72.348C120.087 71.2013 118.797 70.628 117.191 70.628C115.586 70.628 114.296 71.2013 113.321 72.348C112.347 73.466 111.859 75.1717 111.859 77.465C111.859 79.7297 112.347 81.4497 113.321 82.625C114.296 83.7717 115.586 84.345 117.191 84.345ZM142.717 88.43C140.337 88.43 138.288 87.9857 136.568 87.097C134.848 86.2083 133.515 84.947 132.569 83.313C131.651 81.679 131.193 79.744 131.193 77.508C131.193 75.3293 131.637 73.423 132.526 71.789C133.443 70.155 134.69 68.8793 136.267 67.962C137.872 67.016 139.692 66.543 141.728 66.543C143.734 66.543 145.454 66.973 146.888 67.833C148.321 68.693 149.425 69.9113 150.199 71.488C151.001 73.0647 151.403 74.9423 151.403 77.121V78.712H135.536V75.616H147.619L146.931 76.261C146.931 74.3117 146.501 72.821 145.641 71.789C144.781 70.7283 143.548 70.198 141.943 70.198C140.739 70.198 139.707 70.4847 138.847 71.058C138.015 71.6027 137.37 72.391 136.912 73.423C136.482 74.4263 136.267 75.6303 136.267 77.035V77.336C136.267 78.9127 136.51 80.217 136.998 81.249C137.485 82.281 138.216 83.055 139.191 83.571C140.165 84.087 141.369 84.345 142.803 84.345C143.978 84.345 145.153 84.173 146.329 83.829C147.504 83.4563 148.579 82.883 149.554 82.109L151.059 85.721C150.055 86.5523 148.794 87.2117 147.275 87.699C145.755 88.1863 144.236 88.43 142.717 88.43ZM155.659 88V66.973H160.905V71.187H160.432C161.063 69.6677 162.038 68.521 163.356 67.747C164.704 66.9443 166.223 66.543 167.914 66.543C169.606 66.543 170.996 66.8583 172.085 67.489C173.175 68.1197 173.992 69.08 174.536 70.37C175.081 71.6313 175.353 73.2367 175.353 75.186V88H169.978V75.444C169.978 74.3547 169.835 73.466 169.548 72.778C169.29 72.09 168.875 71.5883 168.301 71.273C167.757 70.929 167.054 70.757 166.194 70.757C165.162 70.757 164.259 70.9863 163.485 71.445C162.711 71.875 162.109 72.5057 161.679 73.337C161.249 74.1397 161.034 75.0857 161.034 76.175V88H155.659ZM180.813 95.74V66.973H186.059V71.402H185.629C186.059 69.94 186.933 68.7647 188.252 67.876C189.599 66.9873 191.161 66.543 192.939 66.543C194.773 66.543 196.379 66.9873 197.755 67.876C199.159 68.7647 200.249 70.026 201.023 71.66C201.797 73.2653 202.184 75.2003 202.184 77.465C202.184 79.701 201.797 81.6503 201.023 83.313C200.249 84.947 199.174 86.2083 197.798 87.097C196.422 87.9857 194.802 88.43 192.939 88.43C191.19 88.43 189.656 88 188.338 87.14C187.019 86.2513 186.13 85.1047 185.672 83.7H186.188V95.74H180.813ZM191.434 84.345C193.039 84.345 194.329 83.7717 195.304 82.625C196.278 81.4497 196.766 79.7297 196.766 77.465C196.766 75.1717 196.278 73.466 195.304 72.348C194.329 71.2013 193.039 70.628 191.434 70.628C189.828 70.628 188.538 71.2013 187.564 72.348C186.589 73.466 186.102 75.1717 186.102 77.465C186.102 79.7297 186.589 81.4497 187.564 82.625C188.538 83.7717 189.828 84.345 191.434 84.345ZM216.185 88.43C214.006 88.43 212.114 87.9857 210.509 87.097C208.903 86.2083 207.656 84.947 206.768 83.313C205.879 81.6503 205.435 79.701 205.435 77.465C205.435 75.229 205.879 73.294 206.768 71.66C207.656 70.026 208.903 68.7647 210.509 67.876C212.114 66.9873 214.006 66.543 216.185 66.543C218.363 66.543 220.255 66.9873 221.861 67.876C223.466 68.7647 224.713 70.026 225.602 71.66C226.49 73.294 226.935 75.229 226.935 77.465C226.935 79.701 226.49 81.6503 225.602 83.313C224.713 84.947 223.466 86.2083 221.861 87.097C220.255 87.9857 218.363 88.43 216.185 88.43ZM216.185 84.345C217.79 84.345 219.08 83.7717 220.055 82.625C221.029 81.4497 221.517 79.7297 221.517 77.465C221.517 75.1717 221.029 73.466 220.055 72.348C219.08 71.2013 217.79 70.628 216.185 70.628C214.579 70.628 213.289 71.2013 212.315 72.348C211.34 73.466 210.853 75.1717 210.853 77.465C210.853 79.7297 211.34 81.4497 212.315 82.625C213.289 83.7717 214.579 84.345 216.185 84.345ZM240.96 88.43C238.782 88.43 236.89 87.9857 235.284 87.097C233.679 86.2083 232.432 84.947 231.543 83.313C230.655 81.6503 230.21 79.701 230.21 77.465C230.21 75.229 230.655 73.294 231.543 71.66C232.432 70.026 233.679 68.7647 235.284 67.876C236.89 66.9873 238.782 66.543 240.96 66.543C243.139 66.543 245.031 66.9873 246.636 67.876C248.242 68.7647 249.489 70.026 250.377 71.66C251.266 73.294 251.71 75.229 251.71 77.465C251.71 79.701 251.266 81.6503 250.377 83.313C249.489 84.947 248.242 86.2083 246.636 87.097C245.031 87.9857 243.139 88.43 240.96 88.43ZM240.96 84.345C242.566 84.345 243.856 83.7717 244.83 82.625C245.805 81.4497 246.292 79.7297 246.292 77.465C246.292 75.1717 245.805 73.466 244.83 72.348C243.856 71.2013 242.566 70.628 240.96 70.628C239.355 70.628 238.065 71.2013 237.09 72.348C236.116 73.466 235.628 75.1717 235.628 77.465C235.628 79.7297 236.116 81.4497 237.09 82.625C238.065 83.7717 239.355 84.345 240.96 84.345ZM263.457 88.43C260.963 88.43 259.114 87.7563 257.91 86.409C256.734 85.033 256.147 83.0263 256.147 80.389V57.685H261.522V80.131C261.522 80.9623 261.636 81.679 261.866 82.281C262.124 82.8543 262.496 83.2843 262.984 83.571C263.471 83.8577 264.073 84.001 264.79 84.001C265.105 84.001 265.42 83.9867 265.736 83.958C266.051 83.9293 266.352 83.872 266.639 83.786L266.553 88.043C266.037 88.1577 265.521 88.2437 265.005 88.301C264.517 88.387 264.001 88.43 263.457 88.43ZM277.365 88.43C276.19 88.43 275.043 88.3297 273.925 88.129C272.836 87.9283 271.832 87.656 270.915 87.312C269.998 86.9393 269.195 86.4807 268.507 85.936L269.883 82.41C270.6 82.8687 271.374 83.27 272.205 83.614C273.036 83.958 273.896 84.216 274.785 84.388C275.674 84.56 276.548 84.646 277.408 84.646C278.784 84.646 279.802 84.4167 280.461 83.958C281.149 83.4707 281.493 82.84 281.493 82.066C281.493 81.4067 281.264 80.905 280.805 80.561C280.375 80.1883 279.716 79.916 278.827 79.744L274.527 78.927C272.75 78.583 271.388 77.938 270.442 76.992C269.525 76.0173 269.066 74.7703 269.066 73.251C269.066 71.875 269.439 70.6853 270.184 69.682C270.958 68.6787 272.019 67.9047 273.366 67.36C274.713 66.8153 276.261 66.543 278.01 66.543C279.013 66.543 279.988 66.6433 280.934 66.844C281.88 67.016 282.769 67.2883 283.6 67.661C284.46 68.005 285.205 68.4637 285.836 69.037L284.374 72.563C283.829 72.1043 283.199 71.7173 282.482 71.402C281.765 71.058 281.02 70.8 280.246 70.628C279.501 70.4273 278.77 70.327 278.053 70.327C276.648 70.327 275.602 70.5707 274.914 71.058C274.255 71.5453 273.925 72.1903 273.925 72.993C273.925 73.595 274.126 74.0967 274.527 74.498C274.928 74.8993 275.545 75.1717 276.376 75.315L280.676 76.132C282.539 76.476 283.944 77.1067 284.89 78.024C285.865 78.9413 286.352 80.174 286.352 81.722C286.352 83.1267 285.979 84.3307 285.234 85.334C284.489 86.3373 283.442 87.1113 282.095 87.656C280.748 88.172 279.171 88.43 277.365 88.43Z" fill="white"/>
<path d="M288.514 88L289.46 82.023H295.48L294.534 88H288.514ZM303.437 62.458L304.297 57.212H310.274L309.414 62.458H303.437ZM299.653 88L303.007 66.973H308.382L305.028 88H299.653ZM310.613 88L313.967 66.973H319.213L318.525 71.23H318.181C318.898 69.7107 319.915 68.5497 321.234 67.747C322.581 66.9443 324.158 66.543 325.964 66.543C327.512 66.543 328.802 66.8583 329.834 67.489C330.895 68.1197 331.64 69.0943 332.07 70.413C332.529 71.703 332.6 73.3657 332.285 75.401L330.307 88H324.932L326.91 75.487C327.082 74.4263 327.082 73.552 326.91 72.864C326.738 72.176 326.394 71.66 325.878 71.316C325.391 70.9433 324.703 70.757 323.814 70.757C322.696 70.757 321.707 71.0007 320.847 71.488C320.016 71.9753 319.342 72.6633 318.826 73.552C318.339 74.412 317.995 75.4583 317.794 76.691L315.988 88H310.613Z" fill="#E84499"/>
<path d="M44.9583 92.625V63.9583C44.9583 62.9729 45.3092 62.1293 46.0109 61.4276C46.7127 60.7259 47.5562 60.375 48.5417 60.375H66.4583C67.4437 60.375 68.2873 60.7259 68.9891 61.4276C69.6908 62.1293 70.0417 62.9729 70.0417 63.9583V92.625L57.5 87.25L44.9583 92.625ZM48.5417 87.1604L57.5 83.3083L66.4583 87.1604V63.9583H48.5417V87.1604Z" fill="#E84499"/>
</svg>
